<svg width="215" height="89" viewBox="0 0 215 89" fill="none" xmlns="http://www.w3.org/2000/svg">
<path d="M157.947 78.9734C157.947 58.0283 149.626 37.9411 134.816 23.1308C120.006 8.32039 99.9184 1.58131e-06 78.9734 0C58.0283 -1.58131e-06 37.9412 8.32038 23.1308 23.1308C8.32039 37.9411 3.16261e-06 58.0283 0 78.9734L78.9734 78.9734H157.947Z" fill="white"/>
<g filter="url(#filter0_d_39_62)">
<path d="M131.337 79.9998C128.231 79.9998 125.375 79.1706 122.768 77.5122C120.162 75.8274 118.083 73.4845 116.529 70.4835C115.003 67.4562 114.239 63.9024 114.239 59.8221C114.239 55.7682 114.99 52.2538 116.49 49.2792C118.017 46.3045 120.031 44.0143 122.531 42.4085C125.032 40.7764 127.81 39.9603 130.863 39.9603C133.654 39.9603 136.089 40.6448 138.168 42.0136C140.248 43.3562 141.854 45.3174 142.986 47.8971C144.144 50.4769 144.723 53.6227 144.723 57.3345H142.117C142.117 55.0442 141.656 53.1094 140.735 51.5299C139.813 49.9241 138.616 48.7132 137.142 47.8971C135.667 47.0811 134.088 46.6731 132.403 46.6731C130.429 46.6731 128.639 47.2127 127.033 48.292C125.453 49.345 124.19 50.8587 123.242 52.833C122.321 54.781 121.86 57.1107 121.86 59.8221C121.86 62.5599 122.321 64.9422 123.242 66.9692C124.19 68.9699 125.453 70.5099 127.033 71.5892C128.639 72.6685 130.416 73.2081 132.364 73.2081C133.969 73.2081 135.509 72.7869 136.984 71.9445C138.484 71.0758 139.708 69.8386 140.656 68.2328C141.63 66.627 142.117 64.7185 142.117 62.5072H144.723C144.723 66.2979 144.118 69.4964 142.907 72.1025C141.722 74.7086 140.116 76.6829 138.089 78.0255C136.062 79.3417 133.811 79.9998 131.337 79.9998ZM143.42 78.9732L142.117 69.8517V24.9949H149.659V78.9732H143.42Z" fill="#2C2D42"/>
<path d="M122.497 77.9321L122.5 77.934C125.187 79.6438 128.136 80.4998 131.337 80.4998C133.906 80.4998 136.251 79.815 138.362 78.4449L138.365 78.4423C139.901 77.4249 141.198 76.0652 142.258 74.374L142.925 79.0439L142.986 79.4732H143.42H149.659H150.159V78.9732V24.9949V24.4949H149.659H142.117H141.617V24.9949V44.552C140.717 43.3683 139.659 42.381 138.441 41.5947C136.271 40.1666 133.738 39.4603 130.863 39.4603C127.715 39.4603 124.843 40.3031 122.26 41.9889C119.676 43.648 117.607 46.0085 116.045 49.0509L116.044 49.054C114.501 52.112 113.739 55.7067 113.739 59.8221C113.739 63.9649 114.515 67.5987 116.083 70.7087L116.085 70.7134C117.675 73.7846 119.811 76.1959 122.497 77.9321ZM141.617 62.0072V62.5072C141.617 64.6434 141.147 66.4588 140.228 67.9735L140.228 67.9735L140.225 67.9787C139.318 69.5158 138.154 70.6888 136.734 71.5112C135.331 72.3125 133.877 72.7081 132.364 72.7081C130.515 72.7081 128.836 72.1981 127.314 71.1754C125.82 70.1542 124.611 68.6897 123.696 66.7587C122.811 64.8106 122.36 62.5028 122.36 59.8221C122.36 57.1668 122.811 54.9142 123.694 53.0482C124.608 51.1427 125.817 49.7038 127.31 48.708L127.312 48.707C128.833 47.6843 130.526 47.1731 132.403 47.1731C134.003 47.1731 135.499 47.5596 136.899 48.3346C138.286 49.1021 139.421 50.2441 140.301 51.7788L140.303 51.7819C141.17 53.2678 141.617 55.1107 141.617 57.3345V57.8345V62.0072Z" stroke="white"/>
</g>
<g filter="url(#filter1_d_39_62)">
<path d="M98.1837 78.973V56.7026C98.1837 53.412 97.394 50.9243 95.8145 49.2396C94.2614 47.5285 92.1554 46.6729 89.4967 46.6729C87.3907 46.6729 85.548 47.2521 83.9685 48.4104C82.4154 49.5423 81.2045 51.2139 80.3358 53.4252C79.4934 55.6101 79.0722 58.282 79.0722 61.441H76.3871C76.3871 56.7815 76.9794 52.8592 78.164 49.6739C79.3749 46.4887 81.0992 44.08 83.3367 42.4479C85.5743 40.7894 88.2594 39.9602 91.392 39.9602C94.4457 39.9602 97.0255 40.6446 99.1314 42.0135C101.264 43.3824 102.883 45.3304 103.988 47.8575C105.094 50.3584 105.647 53.3067 105.647 56.7026V78.973H98.1837ZM71.5697 78.973V40.9869H78.085L79.0722 49.2001V78.973H71.5697Z" fill="#2C2D42"/>
<path d="M97.6837 78.973V79.473H98.1837H105.647H106.147V78.973V56.7026C106.147 53.254 105.585 50.2343 104.446 47.6566C103.305 45.0482 101.625 43.0203 99.4027 41.5935C97.1999 40.162 94.5208 39.4602 91.392 39.4602C88.1669 39.4602 85.3746 40.3156 83.0406 42.045C81.5412 43.139 80.2718 44.5618 79.2276 46.3035L78.5814 40.9272L78.5285 40.4869H78.085H71.5697H71.0697V40.9869V78.973V79.473H71.5697H79.0722H79.5722V78.973V61.941V61.441C79.5722 58.3241 79.9881 55.7176 80.8017 53.6065C81.6438 51.4636 82.8034 49.8782 84.263 48.8144L84.2642 48.8136C85.7513 47.723 87.4886 47.1729 89.4967 47.1729C92.0378 47.1729 94.0006 47.9851 95.4443 49.5756L95.4443 49.5757L95.4498 49.5815C96.9114 51.1406 97.6837 53.4851 97.6837 56.7026V78.973Z" stroke="white"/>
</g>
<g filter="url(#filter2_d_39_62)">
<path d="M53.7574 32.8922C52.2569 32.8922 51.0723 32.4842 50.2036 31.6682C49.3612 30.8258 48.94 29.6938 48.94 28.2723C48.94 26.9034 49.3612 25.8241 50.2036 25.0344C51.0723 24.2183 52.2569 23.8103 53.7574 23.8103C55.2315 23.8103 56.3898 24.2183 57.2322 25.0344C58.1009 25.8241 58.5353 26.9034 58.5353 28.2723C58.5353 29.6938 58.1009 30.8258 57.2322 31.6682C56.3898 32.4842 55.2315 32.8922 53.7574 32.8922ZM50.0061 78.9732V40.8686H57.5086V78.9732H50.0061Z" fill="#2C2D42"/>
<path d="M49.85 32.0217L49.8555 32.0272L49.8612 32.0326C50.845 32.9567 52.1641 33.3922 53.7574 33.3922C55.3264 33.3922 56.622 32.9554 57.5801 32.0273L57.5803 32.0271C58.5631 31.0741 59.0353 29.8035 59.0353 28.2723C59.0353 26.7911 58.5609 25.5697 57.5744 24.6698C56.6169 23.7454 55.3233 23.3103 53.7574 23.3103C52.1642 23.3103 50.8452 23.7458 49.8614 24.6698C48.8997 25.5715 48.44 26.7931 48.44 28.2723C48.44 29.799 48.8961 31.0678 49.85 32.0217ZM49.5061 78.9732V79.4732H50.0061H57.5086H58.0086V78.9732V40.8686V40.3686H57.5086H50.0061H49.5061V40.8686V78.9732Z" stroke="white"/>
</g>
<g filter="url(#filter3_d_39_62)">
<path d="M9.67432 78.9733V28.6672H40.7503V35.1431H17.1768V50.3849H38.9734V56.8212H17.1768V78.9733H9.67432Z" fill="#2C2D42"/>
<path d="M9.17432 78.9733V79.4733H9.67432H17.1768H17.6768V78.9733V57.3212H38.9734H39.4734V56.8212V50.3849V49.8849H38.9734H17.6768V35.6431H40.7503H41.2503V35.1431V28.6672V28.1672H40.7503H9.67432H9.17432V28.6672V78.9733Z" stroke="white"/>
</g>
<g filter="url(#filter4_d_39_62)">
<path d="M202.373 80C200.214 80 198.266 79.5919 196.529 78.7759C194.792 77.9598 193.41 76.7357 192.383 75.1036C191.383 73.4452 190.882 71.3655 190.882 68.8647V30.6416H198.345V68.6278C198.345 72.2079 200.017 73.998 203.36 73.998C204.387 73.998 205.387 73.8927 206.361 73.6821C207.335 73.4452 208.441 73.103 209.678 72.6554L210.744 77.9861C209.349 78.5653 207.967 79.0391 206.598 79.4077C205.256 79.8025 203.847 80 202.373 80ZM185.078 46.0809V40.9871H209.599V46.0809H185.078Z" fill="white"/>
</g>
<g filter="url(#filter5_d_39_62)">
<path d="M169.99 32.8922C168.49 32.8922 167.305 32.4842 166.436 31.6682C165.594 30.8258 165.173 29.6938 165.173 28.2723C165.173 26.9034 165.594 25.8241 166.436 25.0344C167.305 24.2183 168.49 23.8103 169.99 23.8103C171.464 23.8103 172.623 24.2183 173.465 25.0344C174.334 25.8241 174.768 26.9034 174.768 28.2723C174.768 29.6938 174.334 30.8258 173.465 31.6682C172.623 32.4842 171.464 32.8922 169.99 32.8922ZM166.239 78.9732V40.8686H173.741V78.9732H166.239Z" fill="white"/>
</g>
<defs>
<filter id="filter0_d_39_62" x="109.239" y="23.9949" width="45.4196" height="65.0049" filterUnits="userSpaceOnUse" color-interpolation-filters="sRGB">
<feFlood flood-opacity="0" result="BackgroundImageFix"/>
<feColorMatrix in="SourceAlpha" type="matrix" values="0 0 0 0 0 0 0 0 0 0 0 0 0 0 0 0 0 0 127 0" result="hardAlpha"/>
<feOffset dy="4"/>
<feGaussianBlur stdDeviation="2"/>
<feComposite in2="hardAlpha" operator="out"/>
<feColorMatrix type="matrix" values="0 0 0 0 0 0 0 0 0 0 0 0 0 0 0 0 0 0 0.25 0"/>
<feBlend mode="normal" in2="BackgroundImageFix" result="effect1_dropShadow_39_62"/>
<feBlend mode="normal" in="SourceGraphic" in2="effect1_dropShadow_39_62" result="shape"/>
</filter>
<filter id="filter1_d_39_62" x="66.5697" y="38.9602" width="44.077" height="49.0129" filterUnits="userSpaceOnUse" color-interpolation-filters="sRGB">
<feFlood flood-opacity="0" result="BackgroundImageFix"/>
<feColorMatrix in="SourceAlpha" type="matrix" values="0 0 0 0 0 0 0 0 0 0 0 0 0 0 0 0 0 0 127 0" result="hardAlpha"/>
<feOffset dy="4"/>
<feGaussianBlur stdDeviation="2"/>
<feComposite in2="hardAlpha" operator="out"/>
<feColorMatrix type="matrix" values="0 0 0 0 0 0 0 0 0 0 0 0 0 0 0 0 0 0 0.25 0"/>
<feBlend mode="normal" in2="BackgroundImageFix" result="effect1_dropShadow_39_62"/>
<feBlend mode="normal" in="SourceGraphic" in2="effect1_dropShadow_39_62" result="shape"/>
</filter>
<filter id="filter2_d_39_62" x="43.94" y="22.8103" width="19.5953" height="65.1628" filterUnits="userSpaceOnUse" color-interpolation-filters="sRGB">
<feFlood flood-opacity="0" result="BackgroundImageFix"/>
<feColorMatrix in="SourceAlpha" type="matrix" values="0 0 0 0 0 0 0 0 0 0 0 0 0 0 0 0 0 0 127 0" result="hardAlpha"/>
<feOffset dy="4"/>
<feGaussianBlur stdDeviation="2"/>
<feComposite in2="hardAlpha" operator="out"/>
<feColorMatrix type="matrix" values="0 0 0 0 0 0 0 0 0 0 0 0 0 0 0 0 0 0 0.25 0"/>
<feBlend mode="normal" in2="BackgroundImageFix" result="effect1_dropShadow_39_62"/>
<feBlend mode="normal" in="SourceGraphic" in2="effect1_dropShadow_39_62" result="shape"/>
</filter>
<filter id="filter3_d_39_62" x="4.67432" y="27.6672" width="41.076" height="60.3062" filterUnits="userSpaceOnUse" color-interpolation-filters="sRGB">
<feFlood flood-opacity="0" result="BackgroundImageFix"/>
<feColorMatrix in="SourceAlpha" type="matrix" values="0 0 0 0 0 0 0 0 0 0 0 0 0 0 0 0 0 0 127 0" result="hardAlpha"/>
<feOffset dy="4"/>
<feGaussianBlur stdDeviation="2"/>
<feComposite in2="hardAlpha" operator="out"/>
<feColorMatrix type="matrix" values="0 0 0 0 0 0 0 0 0 0 0 0 0 0 0 0 0 0 0.25 0"/>
<feBlend mode="normal" in2="BackgroundImageFix" result="effect1_dropShadow_39_62"/>
<feBlend mode="normal" in="SourceGraphic" in2="effect1_dropShadow_39_62" result="shape"/>
</filter>
<filter id="filter4_d_39_62" x="181.078" y="30.6416" width="33.6664" height="57.3584" filterUnits="userSpaceOnUse" color-interpolation-filters="sRGB">
<feFlood flood-opacity="0" result="BackgroundImageFix"/>
<feColorMatrix in="SourceAlpha" type="matrix" values="0 0 0 0 0 0 0 0 0 0 0 0 0 0 0 0 0 0 127 0" result="hardAlpha"/>
<feOffset dy="4"/>
<feGaussianBlur stdDeviation="2"/>
<feComposite in2="hardAlpha" operator="out"/>
<feColorMatrix type="matrix" values="0 0 0 0 0 0 0 0 0 0 0 0 0 0 0 0 0 0 0.25 0"/>
<feBlend mode="normal" in2="BackgroundImageFix" result="effect1_dropShadow_39_62"/>
<feBlend mode="normal" in="SourceGraphic" in2="effect1_dropShadow_39_62" result="shape"/>
</filter>
<filter id="filter5_d_39_62" x="161.173" y="23.8103" width="17.5952" height="63.1628" filterUnits="userSpaceOnUse" color-interpolation-filters="sRGB">
<feFlood flood-opacity="0" result="BackgroundImageFix"/>
<feColorMatrix in="SourceAlpha" type="matrix" values="0 0 0 0 0 0 0 0 0 0 0 0 0 0 0 0 0 0 127 0" result="hardAlpha"/>
<feOffset dy="4"/>
<feGaussianBlur stdDeviation="2"/>
<feComposite in2="hardAlpha" operator="out"/>
<feColorMatrix type="matrix" values="0 0 0 0 0 0 0 0 0 0 0 0 0 0 0 0 0 0 0.25 0"/>
<feBlend mode="normal" in2="BackgroundImageFix" result="effect1_dropShadow_39_62"/>
<feBlend mode="normal" in="SourceGraphic" in2="effect1_dropShadow_39_62" result="shape"/>
</filter>
</defs>
</svg>
