<svg width="163" height="69" viewBox="0 0 163 69" fill="none" xmlns="http://www.w3.org/2000/svg">
<path d="M118.46 59.23C118.46 43.5212 112.22 28.4559 101.112 17.3481C90.0042 6.24029 74.9388 1.18598e-06 59.23 0C43.5213 -1.18598e-06 28.4559 6.24029 17.3481 17.3481C6.24029 28.4559 2.37196e-06 43.5212 0 59.23L59.23 59.23H118.46Z" fill="white"/>
<g filter="url(#filter0_d_8_6)">
<path d="M98.5027 60C96.173 60 94.0309 59.3781 92.0763 58.1343C90.1217 56.8707 88.562 55.1136 87.3971 52.8628C86.252 50.5923 85.6794 47.927 85.6794 44.8668C85.6794 41.8263 86.2421 39.1906 87.3675 36.9596C88.5126 34.7286 90.023 33.0109 91.8986 31.8065C93.7742 30.5825 95.8571 29.9704 98.1474 29.9704C100.24 29.9704 102.066 30.4837 103.626 31.5104C105.186 32.5173 106.39 33.9882 107.239 35.923C108.108 37.8579 108.542 40.2172 108.542 43.001H106.588C106.588 41.2833 106.242 39.8322 105.551 38.6476C104.86 37.4433 103.962 36.5351 102.856 35.923C101.751 35.311 100.566 35.005 99.3023 35.005C97.8216 35.005 96.4791 35.4097 95.2747 36.2192C94.0901 37.0089 93.1424 38.1442 92.4317 39.6249C91.7406 41.0859 91.3951 42.8332 91.3951 44.8668C91.3951 46.9201 91.7406 48.7068 92.4317 50.2271C93.1424 51.7276 94.0901 52.8826 95.2747 53.692C96.4791 54.5015 97.8117 54.9062 99.2727 54.9062C100.477 54.9062 101.632 54.5904 102.738 53.9586C103.863 53.307 104.781 52.3791 105.492 51.1748C106.222 49.9704 106.588 48.539 106.588 46.8806H108.542C108.542 49.7236 108.088 52.1224 107.18 54.077C106.291 56.0316 105.087 57.5124 103.567 58.5193C102.047 59.5065 100.359 60 98.5027 60ZM107.565 59.23L106.588 52.389V18.7463H112.244V59.23H107.565Z" fill="#0E43A0"/>
<path d="M91.8048 58.5542L91.8078 58.5561C93.8431 59.8513 96.0785 60.5 98.5027 60.5C100.453 60.5 102.236 59.9798 103.839 58.9387L103.843 58.9361C104.925 58.2197 105.848 57.2811 106.617 56.1291L107.07 59.3008L107.131 59.73H107.565H112.244H112.744V59.23V18.7463V18.2463H112.244H106.588H106.088V18.7463V33.0539C105.455 32.2806 104.726 31.6253 103.899 31.0915C102.249 30.0056 100.325 29.4704 98.1474 29.4704C95.7631 29.4704 93.5853 30.1091 91.6269 31.3868C89.6689 32.6444 88.1026 34.4324 86.9227 36.7312L86.9211 36.7344C85.7537 39.0487 85.1794 41.7648 85.1794 44.8668C85.1794 47.9894 85.7639 50.7348 86.9507 53.088L86.9531 53.0926C88.1543 55.4136 89.7707 57.2392 91.8048 58.5542ZM106.088 46.3806V46.8806C106.088 48.464 105.74 49.8022 105.064 50.9155L105.064 50.9154L105.061 50.9206C104.391 52.0563 103.533 52.92 102.488 53.5252C101.454 54.1159 100.385 54.4062 99.2727 54.4062C97.9111 54.4062 96.6762 54.0311 95.5553 53.2782C94.4564 52.5268 93.5636 51.4473 92.8852 50.0166C92.2308 48.5752 91.8951 46.863 91.8951 44.8668C91.8951 42.8892 92.2311 41.2189 92.8831 39.8399C93.561 38.4281 94.4533 37.3677 95.5521 36.6352L95.5536 36.6342C96.6737 35.8813 97.9188 35.505 99.3023 35.505C100.481 35.505 101.582 35.7895 102.614 36.3605C103.632 36.924 104.467 37.7632 105.117 38.8965L105.119 38.8995C105.756 39.9906 106.088 41.3498 106.088 43.001V43.501V46.3806Z" stroke="white"/>
</g>
<g filter="url(#filter1_d_8_6)">
<path d="M73.6378 59.23V42.5271C73.6378 40.0592 73.0455 38.1935 71.8609 36.9299C70.696 35.6466 69.1165 35.0049 67.1225 35.0049C65.543 35.0049 64.161 35.4393 62.9764 36.308C61.8115 37.157 60.9033 38.4107 60.2518 40.0691C59.62 41.7078 59.3041 43.7117 59.3041 46.0809H57.2903C57.2903 42.5864 57.7345 39.6446 58.623 37.2557C59.5311 34.8667 60.8243 33.0602 62.5025 31.8361C64.1807 30.5923 66.1945 29.9704 68.544 29.9704C70.8342 29.9704 72.7691 30.4837 74.3485 31.5104C75.9477 32.537 77.162 33.998 77.9912 35.8934C78.8204 37.769 79.235 39.9802 79.235 42.5271V59.23H73.6378ZM53.6772 59.23V30.7404H58.5637L59.3041 36.9003V59.23H53.6772Z" fill="#0E43A0"/>
<path d="M73.1378 59.23V59.73H73.6378H79.235H79.735V59.23V42.5271C79.735 39.9273 79.3119 37.6445 78.4488 35.692C77.5839 33.7155 76.3086 32.1748 74.6198 31.0904C72.9435 30.0011 70.9093 29.4704 68.544 29.4704C66.102 29.4704 63.981 30.1185 62.2063 31.4333C61.1559 32.1998 60.2557 33.1774 59.5022 34.3585L59.0601 30.6807L59.0072 30.2404H58.5637H53.6772H53.1772V30.7404V59.23V59.73H53.6772H59.3041H59.8041V59.23V46.5809V46.0809C59.8041 43.7538 60.1147 41.8153 60.7177 40.2504C61.3427 38.6603 62.1995 37.4929 63.2709 36.7121L63.272 36.7112C64.3643 35.9102 65.6409 35.5049 67.1225 35.5049C68.9989 35.5049 70.4352 36.1032 71.4906 37.266L71.4906 37.266L71.4961 37.2719C72.5629 38.4098 73.1378 40.1324 73.1378 42.5271V59.23Z" stroke="white"/>
</g>
<g filter="url(#filter2_d_8_6)">
<path d="M40.318 24.6693C39.1927 24.6693 38.3042 24.3633 37.6527 23.7512C37.0209 23.1195 36.705 22.2705 36.705 21.2044C36.705 20.1777 37.0209 19.3682 37.6527 18.7759C38.3042 18.1639 39.1927 17.8579 40.318 17.8579C41.4237 17.8579 42.2924 18.1639 42.9242 18.7759C43.5757 19.3682 43.9015 20.1777 43.9015 21.2044C43.9015 22.2705 43.5757 23.1195 42.9242 23.7512C42.2924 24.3633 41.4237 24.6693 40.318 24.6693ZM37.5046 59.23V30.6515H43.1315V59.23H37.5046Z" fill="#0E43A0"/>
<path d="M37.2991 24.1048L37.3047 24.1103L37.3104 24.1157C38.0769 24.8358 39.0999 25.1693 40.318 25.1693C41.5185 25.1693 42.5246 24.8345 43.2721 24.1104L43.2722 24.1102C44.0378 23.3678 44.4015 22.3802 44.4015 21.2044C44.4015 20.0654 44.0357 19.1138 43.2664 18.4113C42.5195 17.691 41.5155 17.3579 40.318 17.3579C39.0999 17.3579 38.0771 17.6913 37.3105 18.4113C36.5594 19.1156 36.205 20.0674 36.205 21.2044C36.205 22.3756 36.5558 23.3615 37.2991 24.1048ZM37.0046 59.23V59.73H37.5046H43.1315H43.6315V59.23V30.6515V30.1515H43.1315H37.5046H37.0046V30.6515V59.23Z" stroke="white"/>
</g>
<g filter="url(#filter3_d_8_6)">
<path d="M7.25574 59.23V21.5005H30.5628V26.3574H12.8826V37.7888H29.2301V42.616H12.8826V59.23H7.25574Z" fill="#0E43A0"/>
<path d="M6.75574 59.23V59.73H7.25574H12.8826H13.3826V59.23V43.116H29.2301H29.7301V42.616V37.7888V37.2888H29.2301H13.3826V26.8574H30.5628H31.0628V26.3574V21.5005V21.0005H30.5628H7.25574H6.75574V21.5005V59.23Z" stroke="white"/>
</g>
<g filter="url(#filter4_d_8_6)">
<path d="M151.78 60C150.161 60 148.7 59.694 147.397 59.0819C146.094 58.4699 145.057 57.5518 144.287 56.3277C143.537 55.0839 143.162 53.5242 143.162 51.6486V22.9812H148.759V51.4709C148.759 54.156 150.013 55.4985 152.52 55.4985C153.29 55.4985 154.04 55.4196 154.771 55.2616C155.501 55.0839 156.331 54.8272 157.259 54.4916L158.058 58.4896C157.012 58.924 155.975 59.2794 154.949 59.5558C153.942 59.8519 152.885 60 151.78 60ZM138.808 34.5607V30.7404H157.199V34.5607H138.808Z" fill="white"/>
</g>
<g filter="url(#filter5_d_8_6)">
<path d="M127.493 24.6693C126.367 24.6693 125.479 24.3633 124.827 23.7512C124.196 23.1195 123.88 22.2705 123.88 21.2043C123.88 20.1777 124.196 19.3682 124.827 18.7759C125.479 18.1639 126.367 17.8578 127.493 17.8578C128.598 17.8578 129.467 18.1639 130.099 18.7759C130.75 19.3682 131.076 20.1777 131.076 21.2043C131.076 22.2705 130.75 23.1195 130.099 23.7512C129.467 24.3633 128.598 24.6693 127.493 24.6693ZM124.679 59.23V30.6515H130.306V59.23H124.679Z" fill="white"/>
</g>
<defs>
<filter id="filter0_d_8_6" x="80.6794" y="17.7463" width="36.5647" height="51.2537" filterUnits="userSpaceOnUse" color-interpolation-filters="sRGB">
<feFlood flood-opacity="0" result="BackgroundImageFix"/>
<feColorMatrix in="SourceAlpha" type="matrix" values="0 0 0 0 0 0 0 0 0 0 0 0 0 0 0 0 0 0 127 0" result="hardAlpha"/>
<feOffset dy="4"/>
<feGaussianBlur stdDeviation="2"/>
<feComposite in2="hardAlpha" operator="out"/>
<feColorMatrix type="matrix" values="0 0 0 0 0 0 0 0 0 0 0 0 0 0 0 0 0 0 0.25 0"/>
<feBlend mode="normal" in2="BackgroundImageFix" result="effect1_dropShadow_8_6"/>
<feBlend mode="normal" in="SourceGraphic" in2="effect1_dropShadow_8_6" result="shape"/>
</filter>
<filter id="filter1_d_8_6" x="48.6772" y="28.9704" width="35.5578" height="39.2596" filterUnits="userSpaceOnUse" color-interpolation-filters="sRGB">
<feFlood flood-opacity="0" result="BackgroundImageFix"/>
<feColorMatrix in="SourceAlpha" type="matrix" values="0 0 0 0 0 0 0 0 0 0 0 0 0 0 0 0 0 0 127 0" result="hardAlpha"/>
<feOffset dy="4"/>
<feGaussianBlur stdDeviation="2"/>
<feComposite in2="hardAlpha" operator="out"/>
<feColorMatrix type="matrix" values="0 0 0 0 0 0 0 0 0 0 0 0 0 0 0 0 0 0 0.25 0"/>
<feBlend mode="normal" in2="BackgroundImageFix" result="effect1_dropShadow_8_6"/>
<feBlend mode="normal" in="SourceGraphic" in2="effect1_dropShadow_8_6" result="shape"/>
</filter>
<filter id="filter2_d_8_6" x="31.705" y="16.8579" width="17.1964" height="51.3722" filterUnits="userSpaceOnUse" color-interpolation-filters="sRGB">
<feFlood flood-opacity="0" result="BackgroundImageFix"/>
<feColorMatrix in="SourceAlpha" type="matrix" values="0 0 0 0 0 0 0 0 0 0 0 0 0 0 0 0 0 0 127 0" result="hardAlpha"/>
<feOffset dy="4"/>
<feGaussianBlur stdDeviation="2"/>
<feComposite in2="hardAlpha" operator="out"/>
<feColorMatrix type="matrix" values="0 0 0 0 0 0 0 0 0 0 0 0 0 0 0 0 0 0 0.25 0"/>
<feBlend mode="normal" in2="BackgroundImageFix" result="effect1_dropShadow_8_6"/>
<feBlend mode="normal" in="SourceGraphic" in2="effect1_dropShadow_8_6" result="shape"/>
</filter>
<filter id="filter3_d_8_6" x="2.25574" y="20.5005" width="33.307" height="47.7295" filterUnits="userSpaceOnUse" color-interpolation-filters="sRGB">
<feFlood flood-opacity="0" result="BackgroundImageFix"/>
<feColorMatrix in="SourceAlpha" type="matrix" values="0 0 0 0 0 0 0 0 0 0 0 0 0 0 0 0 0 0 127 0" result="hardAlpha"/>
<feOffset dy="4"/>
<feGaussianBlur stdDeviation="2"/>
<feComposite in2="hardAlpha" operator="out"/>
<feColorMatrix type="matrix" values="0 0 0 0 0 0 0 0 0 0 0 0 0 0 0 0 0 0 0.25 0"/>
<feBlend mode="normal" in2="BackgroundImageFix" result="effect1_dropShadow_8_6"/>
<feBlend mode="normal" in="SourceGraphic" in2="effect1_dropShadow_8_6" result="shape"/>
</filter>
<filter id="filter4_d_8_6" x="134.808" y="22.9812" width="27.2498" height="45.0188" filterUnits="userSpaceOnUse" color-interpolation-filters="sRGB">
<feFlood flood-opacity="0" result="BackgroundImageFix"/>
<feColorMatrix in="SourceAlpha" type="matrix" values="0 0 0 0 0 0 0 0 0 0 0 0 0 0 0 0 0 0 127 0" result="hardAlpha"/>
<feOffset dy="4"/>
<feGaussianBlur stdDeviation="2"/>
<feComposite in2="hardAlpha" operator="out"/>
<feColorMatrix type="matrix" values="0 0 0 0 0 0 0 0 0 0 0 0 0 0 0 0 0 0 0.25 0"/>
<feBlend mode="normal" in2="BackgroundImageFix" result="effect1_dropShadow_8_6"/>
<feBlend mode="normal" in="SourceGraphic" in2="effect1_dropShadow_8_6" result="shape"/>
</filter>
<filter id="filter5_d_8_6" x="119.88" y="17.8578" width="15.1964" height="49.3722" filterUnits="userSpaceOnUse" color-interpolation-filters="sRGB">
<feFlood flood-opacity="0" result="BackgroundImageFix"/>
<feColorMatrix in="SourceAlpha" type="matrix" values="0 0 0 0 0 0 0 0 0 0 0 0 0 0 0 0 0 0 127 0" result="hardAlpha"/>
<feOffset dy="4"/>
<feGaussianBlur stdDeviation="2"/>
<feComposite in2="hardAlpha" operator="out"/>
<feColorMatrix type="matrix" values="0 0 0 0 0 0 0 0 0 0 0 0 0 0 0 0 0 0 0.25 0"/>
<feBlend mode="normal" in2="BackgroundImageFix" result="effect1_dropShadow_8_6"/>
<feBlend mode="normal" in="SourceGraphic" in2="effect1_dropShadow_8_6" result="shape"/>
</filter>
</defs>
</svg>
