<svg width="486" height="415" viewBox="0 0 486 415" fill="none" xmlns="http://www.w3.org/2000/svg">
<path d="M416.951 98.5186H69.0492C54.3819 98.5186 42.4918 110.402 42.4918 125.062V387.84C42.4918 402.499 54.3819 414.383 69.0492 414.383H416.951C431.618 414.383 443.508 402.499 443.508 387.84V125.062C443.508 110.402 431.618 98.5186 416.951 98.5186Z" fill="url(#paint0_linear_51_131)"/>
<path d="M416.951 98.5186H69.0492C54.3819 98.5186 42.4918 110.402 42.4918 125.062C42.4918 139.721 54.3819 151.605 69.0492 151.605H416.951C431.618 151.605 443.508 139.721 443.508 125.062C443.508 110.402 431.618 98.5186 416.951 98.5186Z" fill="#1257CF"/>
<path fill-rule="evenodd" clip-rule="evenodd" d="M276.476 3.29966L434.816 140.87C435.498 141.462 436.104 142.108 436.635 142.796C431.463 148.67 425.069 151.605 417.449 151.605L129.895 151.603L257.742 4.60892C262.554 -0.922883 270.941 -1.50905 276.476 3.29966Z" fill="url(#paint1_linear_51_131)"/>
<path fill-rule="evenodd" clip-rule="evenodd" d="M300.527 24.0969L322.681 43.3773L230.918 151.792L189.67 151.792L300.527 24.0969Z" fill="white"/>
<path fill-rule="evenodd" clip-rule="evenodd" d="M408.984 260.432C413.384 260.432 416.951 263.997 416.951 268.395C416.951 272.793 413.384 276.358 408.984 276.358H239.016C234.616 276.358 231.049 272.793 231.049 268.395C231.049 263.997 234.616 260.432 239.016 260.432H408.984ZM408.984 225.926C413.384 225.926 416.951 229.491 416.951 233.889C416.951 238.287 413.384 241.852 408.984 241.852H239.016C234.616 241.852 231.049 238.287 231.049 233.889C231.049 229.491 234.616 225.926 239.016 225.926H408.984ZM408.984 191.42C413.384 191.42 416.951 194.985 416.951 199.383C416.951 203.78 413.384 207.346 408.984 207.346H239.016C234.616 207.346 231.049 203.78 231.049 199.383C231.049 194.985 234.616 191.42 239.016 191.42H408.984Z" fill="#1257CF"/>
<path d="M427.574 44.105C434.174 44.105 439.525 38.7572 439.525 32.1605C439.525 25.5638 434.174 20.2161 427.574 20.2161C420.973 20.2161 415.623 25.5638 415.623 32.1605C415.623 38.7572 420.973 44.105 427.574 44.105Z" stroke="#0E43A0" stroke-width="3"/>
<path opacity="0.3" d="M476.705 406.42C481.838 406.42 486 402.26 486 397.129C486 391.999 481.838 387.839 476.705 387.839C471.571 387.839 467.41 391.999 467.41 397.129C467.41 402.26 471.571 406.42 476.705 406.42Z" fill="#1257CF"/>
<path opacity="0.3" d="M9.29508 257.778C14.4286 257.778 18.5902 253.618 18.5902 248.488C18.5902 243.357 14.4286 239.198 9.29508 239.198C4.16155 239.198 0 243.357 0 248.488C0 253.618 4.16155 257.778 9.29508 257.778Z" fill="#1257CF"/>
<path d="M111.541 70.6481C116.675 70.6481 120.836 66.4888 120.836 61.358C120.836 56.2272 116.675 52.0679 111.541 52.0679C106.407 52.0679 102.246 56.2272 102.246 61.358C102.246 66.4888 106.407 70.6481 111.541 70.6481Z" stroke="#0E43A0" stroke-width="3"/>
<defs>
<linearGradient id="paint0_linear_51_131" x1="444" y1="145.5" x2="42" y2="394.5" gradientUnits="userSpaceOnUse">
<stop stop-color="#0A2F71"/>
<stop offset="1" stop-color="#1257CF"/>
</linearGradient>
<linearGradient id="paint1_linear_51_131" x1="283.265" y1="0.0440674" x2="283.265" y2="151.605" gradientUnits="userSpaceOnUse">
<stop stop-color="#0E43A0"/>
<stop offset="1" stop-color="#B4CDF8"/>
</linearGradient>
</defs>
</svg>
